HIERARCHY
ROOT hip
{
  OFFSET 0 0 0
  CHANNELS 6 Xposition Yposition Zposition Zrotation Yrotation Xrotation
  JOINT abdomen
  {
    OFFSET 0 20.6881 -0.73152
    CHANNELS 3 Zrotation Xrotation Yrotation
    JOINT chest
    {
      OFFSET 0 11.7043 -0.48768
      CHANNELS 3 Zrotation Xrotation Yrotation
      JOINT neck
      {
        OFFSET 0 22.1894 -2.19456
        CHANNELS 3 Zrotation Xrotation Yrotation
        JOINT head
        {
          OFFSET -0.24384 7.07133 1.2192
          CHANNELS 3 Zrotation Xrotation Yrotation
          JOINT leftEye
          {
            OFFSET 4.14528 8.04674 8.04672
            CHANNELS 3 Zrotation Xrotation Yrotation
            End Site
            {
              OFFSET 1 0 0
            }
          }
          JOINT rightEye
          {
            OFFSET -3.6576 8.04674 8.04672
            CHANNELS 3 Zrotation Xrotation Yrotation
            End Site
            {
              OFFSET 1 0 0
            }
          }
        }
      }
      JOINT rCollar
      {
        OFFSET -2.68224 19.2634 -4.8768
        CHANNELS 3 Zrotation Xrotation Yrotation
        JOINT rShldr
        {
          OFFSET -8.77824 -1.95073 1.46304
          CHANNELS 3 Zrotation Xrotation Yrotation
          JOINT rForeArm
          {
            OFFSET -28.1742 -1.7115 0.48768
            CHANNELS 3 Zrotation Xrotation Yrotation
            JOINT rHand
            {
              OFFSET -22.5879 0.773209 7.07136
              CHANNELS 3 Zrotation Xrotation Yrotation
              JOINT rThumb1
              {
                OFFSET -1.2192 -0.487915 3.41376
                CHANNELS 3 Zrotation Xrotation Yrotation
                JOINT rThumb2
                {
                  OFFSET -3.37035 -0.52449 3.41376
                  CHANNELS 3 Zrotation Xrotation Yrotation
                  End Site
                  {
                    OFFSET -1.78271 -1.18214 1.43049
                  }
                }
              }
              JOINT rIndex1
              {
                OFFSET -7.75947 0.938293 5.60832
                CHANNELS 3 Zrotation Xrotation Yrotation
                JOINT rIndex2
                {
                  OFFSET -2.54057 -0.884171 1.56538
                  CHANNELS 3 Zrotation Xrotation Yrotation
                  End Site
                  {
                    OFFSET -1.62519 -0.234802 1.16502
                  }
                }
              }
              JOINT rMid1
              {
                OFFSET -8.24714 1.18213 3.41376
                CHANNELS 3 Zrotation Xrotation Yrotation
                JOINT rMid2
                {
                  OFFSET -3.10165 -0.590103 1.0647
                  CHANNELS 3 Zrotation Xrotation Yrotation
                  End Site
                  {
                    OFFSET -2.48547 -0.328903 0.83742
                  }
                }
              }
              JOINT rRing1
              {
                OFFSET -8.82822 0.546677 1.51678
                CHANNELS 3 Zrotation Xrotation Yrotation
                JOINT rRing2
                {
                  OFFSET -2.60934 -0.819778 -0.0198488
                  CHANNELS 3 Zrotation Xrotation Yrotation
                  End Site
                  {
                    OFFSET -2.33842 -0.294052 0.168128
                  }
                }
              }
              JOINT rPinky1
              {
                OFFSET -8.27202 -0.0477905 -0.4584
                CHANNELS 3 Zrotation Xrotation Yrotation
                JOINT rPinky2
                {
                  OFFSET -1.82734 -0.647385 -0.700984
                  CHANNELS 3 Zrotation Xrotation Yrotation
                  End Site
                  {
                    OFFSET -1.69225 -0.51767 -0.607171
                  }
                }
              }
            }
          }
        }
      }
      JOINT lCollar
      {
        OFFSET 2.68224 19.2634 -4.8768
        CHANNELS 3 Zrotation Xrotation Yrotation
        JOINT lShldr
        {
          OFFSET 8.77824 -1.95073 1.46304
          CHANNELS 3 Zrotation Xrotation Yrotation
          JOINT lForeArm
          {
            OFFSET 28.1742 -1.7115 0.48768
            CHANNELS 3 Zrotation Xrotation Yrotation
            JOINT lHand
            {
              OFFSET 22.5879 0.773209 7.07136
              CHANNELS 3 Zrotation Xrotation Yrotation
              JOINT lThumb1
              {
                OFFSET 1.2192 -0.487915 3.41376
                CHANNELS 3 Zrotation Xrotation Yrotation
                JOINT lThumb2
                {
                  OFFSET 3.37035 -0.52449 3.41376
                  CHANNELS 3 Zrotation Xrotation Yrotation
                  End Site
                  {
                    OFFSET 1.78271 -1.18214 1.43049
                  }
                }
              }
              JOINT lIndex1
              {
                OFFSET 7.75947 0.938293 5.60832
                CHANNELS 3 Zrotation Xrotation Yrotation
                JOINT lIndex2
                {
                  OFFSET 2.54057 -0.884171 1.56538
                  CHANNELS 3 Zrotation Xrotation Yrotation
                  End Site
                  {
                    OFFSET 1.62519 -0.234802 1.16502
                  }
                }
              }
              JOINT lMid1
              {
                OFFSET 8.24714 1.18213 3.41376
                CHANNELS 3 Zrotation Xrotation Yrotation
                JOINT lMid2
                {
                  OFFSET 3.10165 -0.590103 1.0647
                  CHANNELS 3 Zrotation Xrotation Yrotation
                  End Site
                  {
                    OFFSET 2.48547 -0.328903 0.83742
                  }
                }
              }
              JOINT lRing1
              {
                OFFSET 8.82822 0.546677 1.51678
                CHANNELS 3 Zrotation Xrotation Yrotation
                JOINT lRing2
                {
                  OFFSET 2.60934 -0.819778 -0.0198488
                  CHANNELS 3 Zrotation Xrotation Yrotation
                  End Site
                  {
                    OFFSET 2.33842 -0.294052 0.168128
                  }
                }
              }
              JOINT lPinky1
              {
                OFFSET 8.27202 -0.0477905 -0.4584
                CHANNELS 3 Zrotation Xrotation Yrotation
                JOINT lPinky2
                {
                  OFFSET 1.82734 -0.647385 -0.700984
                  CHANNELS 3 Zrotation Xrotation Yrotation
                  End Site
                  {
                    OFFSET 1.69225 -0.51767 -0.607171
                  }
                }
              }
            }
          }
        }
      }
    }
  }
  JOINT rButtock
  {
    OFFSET -8.77824 4.35084 1.2192
    CHANNELS 3 Zrotation Xrotation Yrotation
    JOINT rThigh
    {
      OFFSET 0 -1.70687 -2.19456
      CHANNELS 3 Zrotation Xrotation Yrotation
      JOINT rShin
      {
        OFFSET 0 -36.8199 0.73152
        CHANNELS 3 Zrotation Xrotation Yrotation
        JOINT rFoot
        {
          OFFSET 0.73152 -45.1104 -5.12064
          CHANNELS 3 Zrotation Xrotation Yrotation
          End Site
          {
            OFFSET -1.1221 -3.69964 12.103
          }
        }
      }
    }
  }
  JOINT lButtock
  {
    OFFSET 8.77824 4.35084 1.2192
    CHANNELS 3 Zrotation Xrotation Yrotation
    JOINT lThigh
    {
      OFFSET 0 -1.70687 -2.19456
      CHANNELS 3 Zrotation Xrotation Yrotation
      JOINT lShin
      {
        OFFSET 0 -36.8199 0.73152
        CHANNELS 3 Zrotation Xrotation Yrotation
        JOINT lFoot
        {
          OFFSET -0.73152 -45.1104 -5.12064
          CHANNELS 3 Zrotation Xrotation Yrotation
          End Site
          {
            OFFSET 1.1221 -3.69964 12.103
          }
        }
      }
    }
  }
}
MOTION
Frames:	6
Frame Time:	0.00833333
111.061 85.0159 -69.4295 0.0 0.0 0.0 0.040483 0.000270409 0.00114436 0.0111573 0.000489949 0.00193271 6.91351e-16 0.0 4.65901e-18 2.0655e-15 3.18055e-15 1.55301e-17 -0.0 0.0 0.0 -0.0 0.0 0.0 3.96252e-16 -7.76503e-19 1.49089e-16 9.5208e-15 -2.98177e-16 9.93923e-16 1.25234e-13 -4.03533e-14 6.36111e-15 1.43285e-12 2.59166e-14 0.0 3.37802e-12 -2.59032e-14 2.22639e-14 5.8236e-12 -4.77083e-14 3.57812e-14 3.3853e-12 -2.50469e-14 1.90833e-14 7.73091 5.47488 0.417314 3.37889e-12 -2.61402e-14 3.18055e-14 2.90554 0.965183 0.102902 3.38686e-12 -2.55438e-14 2.3059e-14 10.2786 0.731801 0.0259123 3.37477e-12 -2.50469e-14 2.54444e-14 2.22167 -0.733487 -0.20892 2.99516e-16 -5.82377e-19 -1.49089e-16 4.79422e-15 -3.97569e-16 -9.93923e-16 1.2752e-13 3.43897e-14 -1.90833e-14 1.42981e-12 -4.80313e-14 3.49861e-14 3.37999e-12 -2.49168e-14 2.22639e-14 5.84268e-12 -3.81667e-14 5.00937e-14 3.37417e-12 -2.14687e-14 3.18055e-14 -7.73091 5.47488 -0.417314 3.38043e-12 -2.49475e-14 2.22639e-14 -2.90554 0.965183 -0.102902 3.37187e-12 -2.45499e-14 2.70347e-14 -10.2786 0.731801 -0.0259123 3.37994e-12 -2.5842e-14 1.59028e-14 -2.22167 -0.733487 0.20892 -2.03217e-16 0.0 -3.88251e-19 0.554629 -3.16496 -0.0436848 -0.00574512 0.17961 -0.0505569 -0.523866 2.98421 0.121166 2.03217e-16 0.0 3.88251e-19 -0.493047 -3.01454 0.0399657 0.00619339 -0.0928808 0.0545635 0.52347 3.10627 -0.123628
109.935 83.2301 -70.2759 0.2944 -20.8574 2.4725 -1.92413 0.369342 0.621353 0.714447 2.01326 0.129817 -0.629863 0.792043 -0.764567 -0.0192023 1.72365 -1.42419 -0.0 0.0 0.0 -0.0 0.0 0.0 4.0182e-15 -4.83722e-15 -6.92605e-14 21.0476 17.2102 2.63554 0.253204 16.9788 -40.3292 0.774504 -19.7483 -2.21529 -2.32223e-10 -2.14457e-09 2.61624e-10 -4.12512e-10 -3.54208e-09 4.32423e-10 -2.32216e-10 -2.14456e-09 2.61619e-10 7.73091 5.47488 0.417314 -2.32223e-10 -2.14457e-09 2.6163e-10 2.90554 0.965183 0.102902 -2.32217e-10 -2.14456e-09 2.61623e-10 10.2786 0.731801 0.0259123 -2.32228e-10 -2.14457e-09 2.61629e-10 2.22167 -0.733487 -0.20892 3.90359e-15 -4.84231e-15 -6.95622e-14 -20.4878 16.2299 -5.18174 -1.17052 16.0004 41.0861 -0.0182283 3.06144 -0.428177 -5.79394e-11 -7.15902e-11 -8.9976e-11 -9.96493e-11 -1.23731e-10 -1.54955e-10 -5.79445e-11 -7.15881e-11 -8.99679e-11 -7.73091 5.47488 -0.417314 -5.79383e-11 -7.15898e-11 -8.99754e-11 -2.90554 0.965183 -0.102902 -5.79469e-11 -7.15895e-11 -8.99729e-11 -10.2786 0.731801 -0.0259123 -5.79383e-11 -7.15897e-11 -8.99844e-11 -2.22167 -0.733487 0.20892 -2.03217e-16 0.0 -3.88251e-19 1.46314 -4.37229 0.527499 0.0310693 8.43442 0.122439 -0.818614 -2.97823 -2.35511 2.03217e-16 0.0 3.88251e-19 2.37617 -11.291 2.77517 0.0027278 10.5292 -0.0948308 0.682789 0.661543 1.69659
109.894 83.4238 -69.3152 0.7299 -21.2264 2.4644 -4.03186 0.751819 1.22518 1.50034 4.23926 0.249012 -1.32251 1.57497 -1.63967 0.0978641 3.45933 -3.05824 -0.0 0.0 0.0 -0.0 0.0 0.0 8.25667e-15 -1.15744e-14 -1.42544e-13 41.1862 35.0692 6.36168 16.2199 7.96506 -81.9254 -0.540137 -40.4941 -5.64266 -4.91253e-10 -4.49075e-09 5.43591e-10 -8.72159e-10 -7.41748e-09 8.98257e-10 -4.91246e-10 -4.49074e-09 5.43583e-10 7.73091 5.47488 0.417314 -4.91253e-10 -4.49075e-09 5.43594e-10 2.90554 0.965183 0.102902 -4.91249e-10 -4.49074e-09 5.43588e-10 10.2786 0.731801 0.0259123 -4.91259e-10 -4.49075e-09 5.43598e-10 2.22167 -0.733487 -0.20892 8.12192e-15 -1.15851e-14 -1.42852e-13 -38.322 32.9511 -12.457 -17.0465 6.42286 83.0406 0.0133321 6.37019 -0.895233 -1.34299e-10 -1.23916e-10 -1.82085e-10 -2.31114e-10 -2.13992e-10 -3.13465e-10 -1.34303e-10 -1.23915e-10 -1.82079e-10 -7.73091 5.47488 -0.417314 -1.34297e-10 -1.23915e-10 -1.82084e-10 -2.90554 0.965183 -0.102902 -1.34305e-10 -1.23915e-10 -1.82084e-10 -10.2786 0.731801 -0.0259123 -1.34296e-10 -1.23914e-10 -1.82096e-10 -2.22167 -0.733487 0.20892 -2.03217e-16 0.0 -3.88251e-19 2.45291 -5.71411 1.11467 0.0139226 17.2247 0.318452 -1.69701 -9.27803 -5.02656 2.03217e-16 0.0 3.88251e-19 6.29739 -19.9777 5.96929 0.0636484 21.8927 -0.27198 1.01152 -1.97272 3.51676
109.751 83.5793 -68.2873 0.7133 -21.8302 2.4995 -5.87732 1.10697 1.86208 2.09394 6.03867 0.387496 -1.82615 2.37444 -2.29545 0.200083 5.15815 -4.28802 -0.0 0.0 0.0 -0.0 0.0 0.0 1.12621e-14 -1.45101e-14 -2.0808e-13 56.0411 51.0573 12.07 22.3255 -22.3653 -100.818 -5.82189 -58.7163 -12.1114 -7.03426e-10 -6.43365e-09 7.84828e-10 -1.24918e-09 -1.06261e-08 1.2972e-09 -7.03419e-10 -6.43364e-09 7.84817e-10 7.73091 5.47488 0.417314 -7.03427e-10 -6.43365e-09 7.84827e-10 2.90554 0.965183 0.102902 -7.03424e-10 -6.43364e-09 7.84823e-10 10.2786 0.731801 0.0259123 -7.03433e-10 -6.43365e-09 7.84836e-10 2.22167 -0.733487 -0.20892 1.11117e-14 -1.45258e-14 -2.08388e-13 -49.3827 46.7116 -22.0615 -22.5403 -24.2048 103.54 0.0840901 9.18226 -1.29935 -1.80578e-10 -2.14721e-10 -2.69972e-10 -3.10633e-10 -3.71116e-10 -4.64966e-10 -1.80582e-10 -2.14721e-10 -2.69967e-10 -7.73091 5.47488 -0.417314 -1.80576e-10 -2.1472e-10 -2.69971e-10 -2.90554 0.965183 -0.102902 -1.80584e-10 -2.14719e-10 -2.69973e-10 -10.2786 0.731801 -0.0259123 -1.80575e-10 -2.14718e-10 -2.69985e-10 -2.22167 -0.733487 0.20892 -2.03217e-16 0.0 -3.88251e-19 3.35284 -6.78462 1.67687 -0.0571327 24.9432 0.512236 -2.99069 -14.7871 -7.54919 2.03217e-16 0.0 3.88251e-19 10.7429 -27.5817 9.12938 0.184818 31.7727 -0.45737 1.46744 -4.2087 5.35078
109.486 83.7637 -67.2622 0.2223 -22.5294 2.6139 -7.05447 1.39404 2.58145 2.22372 6.77165 0.572412 -1.90655 3.21728 -2.40139 0.0597499 6.78073 -4.49218 -0.0 0.0 0.0 -0.0 0.0 0.0 1.11848e-14 -7.94246e-15 -2.54246e-13 62.0791 62.7794 20.1362 24.4799 -48.7539 -101.729 -17.1251 -70.8661 -23.8963 -7.98456e-10 -7.36835e-09 9.24237e-10 -1.41966e-09 -1.2168e-08 1.5289e-09 -7.9845e-10 -7.36833e-09 9.24225e-10 7.73091 5.47488 0.417314 -7.98457e-10 -7.36835e-09 9.24234e-10 2.90554 0.965183 0.102902 -7.98455e-10 -7.36834e-09 9.24232e-10 10.2786 0.731801 0.0259123 -7.98463e-10 -7.36835e-09 9.24247e-10 2.22167 -0.733487 -0.20892 1.10302e-14 -7.96109e-15 -2.54544e-13 -53.8124 55.2391 -30.898 -22.3004 -51.3262 108.285 0.144 10.7549 -1.52969 -1.51658e-10 -4.01725e-10 -3.47307e-10 -2.60289e-10 -6.954e-10 -5.98945e-10 -1.51662e-10 -4.01728e-10 -3.47301e-10 -7.73091 5.47488 -0.417314 -1.51656e-10 -4.01723e-10 -3.47304e-10 -2.90554 0.965183 -0.102902 -1.51664e-10 -4.01723e-10 -3.47308e-10 -10.2786 0.731801 -0.0259123 -1.51654e-10 -4.0172e-10 -3.4732e-10 -2.22167 -0.733487 0.20892 -2.03217e-16 0.0 -3.88251e-19 3.97322 -7.17871 2.1702 -0.139378 29.983 0.655559 -4.18471 -18.4347 -9.44479 2.03217e-16 0.0 3.88251e-19 14.4648 -32.7465 11.3529 0.303438 37.9448 -0.594246 1.93466 -5.46537 7.19947
109.269 83.9425 -66.2952 -0.1862 -23.1762 2.7422 -7.26235 1.60304 3.37277 1.66359 5.84991 0.81076 -1.45932 4.16438 -1.72281 -0.466569 8.41356 -3.23995 -0.0 0.0 0.0 -0.0 0.0 0.0 6.38315e-15 1.88629e-14 -2.75869e-13 61.0252 69.2925 26.9099 27.6555 -59.2511 -97.4111 -27.332 -75.3501 -34.2301 -7.05102e-10 -6.81304e-09 9.24251e-10 -1.25927e-09 -1.12471e-08 1.53294e-09 -7.051e-10 -6.81302e-09 9.24236e-10 7.73091 5.47488 0.417314 -7.05104e-10 -6.81303e-09 9.24247e-10 2.90554 0.965183 0.102902 -7.051e-10 -6.81302e-09 9.24246e-10 10.2786 0.731801 0.0259123 -7.05108e-10 -6.81303e-09 9.24261e-10 2.22167 -0.733487 -0.20892 6.24564e-15 1.88433e-14 -2.76133e-13 -57.5071 58.8445 -31.3821 -22.0363 -62.8688 108.776 0.153269 10.7257 -1.52628 2.28219e-11 -8.32963e-10 -4.35463e-10 4.15592e-11 -1.4438e-09 -7.52992e-10 2.28196e-11 -8.32972e-10 -4.35451e-10 -7.73091 5.47488 -0.417314 2.28242e-11 -8.32961e-10 -4.35457e-10 -2.90554 0.965183 -0.102902 2.28166e-11 -8.3296e-10 -4.35462e-10 -10.2786 0.731801 -0.0259123 2.28257e-11 -8.32957e-10 -4.35473e-10 -2.22167 -0.733487 0.20892 -2.03217e-16 0.0 -3.88251e-19 4.19812 -6.61125 2.56967 -0.171197 31.232 0.691283 -4.69536 -19.5366 -10.2759 2.03217e-16 0.0 3.88251e-19 16.1024 -34.7113 11.6165 0.327999 38.8769 -0.600401 2.24668 -5.21693 9.11607
